<?xml version="1.0" encoding="UTF-8" standalone="no"?>
<!DOCTYPE svg PUBLIC "-//W3C//DTD SVG 1.1//EN" "http://www.w3.org/Graphics/SVG/1.1/DTD/svg11.dtd">
<svg xmlns="http://www.w3.org/2000/svg" xmlns:xl="http://www.w3.org/1999/xlink" version="1.1" viewBox="53.141733 475.50394 270.56 290" width="270.56pt" height="290pt" xmlns:dc="http://purl.org/dc/elements/1.1/">
  <metadata> Produced by OmniGraffle 7.4.2 
    <dc:date>2017-09-21 12:53:12 +0000</dc:date>
  </metadata>
  <defs/>
  <g stroke="none" stroke-opacity="1" stroke-dasharray="none" fill="none" fill-opacity="1">
    <title>OpenJ9 - Eclipse Teal / Purple 10</title>
    <g>
      <title>Layer 1</title>
      <path d="M 188.42173 548.50394 L 250.70173 584.50394 L 250.70173 656.50394 L 188.42173 692.50394 L 126.14173 656.50394 L 126.14173 584.50394 Z" fill="white"/>
      <path d="M 188.42173 548.50394 L 250.70173 584.50394 L 250.70173 656.50394 L 188.42173 692.50394 L 126.14173 656.50394 L 126.14173 584.50394 Z" stroke="#65c2be" stroke-linecap="round" stroke-linejoin="round" stroke-width="2"/>
      <path d="M 188.42173 552.10394 L 247.58773 586.30394 L 247.58773 654.70394 L 188.42173 688.90394 L 129.25573 654.70394 L 129.25573 586.30394 Z" fill="white"/>
      <path d="M 188.42173 552.10394 L 247.58773 586.30394 L 247.58773 654.70394 L 188.42173 688.90394 L 129.25573 654.70394 L 129.25573 586.30394 Z" stroke="#363450" stroke-linecap="round" stroke-linejoin="round" stroke-width="2"/>
      <path d="M 148.94943 625.45175 C 147.93107 627.0962 146.52044 627.9179 144.71624 627.9179 C 142.96279 627.9179 141.56186 627.12366 140.51328 625.5349 C 139.46524 623.9458 138.94104 621.88585 138.94104 619.3537 C 138.94104 616.7611 139.46011 614.66264 140.49825 613.0587 C 141.53658 611.45495 142.93714 610.6526 144.70103 610.6526 C 146.44495 610.6526 147.84312 611.3947 148.89648 612.87695 C 149.94983 614.36014 150.4766 616.4335 150.4766 619.0963 C 150.4766 621.6891 149.96742 623.8075 148.94943 625.45175 M 144.73144 608.5362 C 142.17126 608.5362 140.11513 609.5553 138.56286 611.5924 C 137.01096 613.6296 136.23483 616.2118 136.23483 619.3385 C 136.23483 622.3342 136.97578 624.8634 138.45751 626.9256 C 139.93905 628.9883 142.00508 630.0197 144.65577 630.0197 C 147.34696 630.0197 149.44083 628.9326 150.93795 626.7594 C 152.43433 624.5858 153.1828 622.0361 153.1828 619.1117 C 153.1828 616.0658 152.41161 613.5415 150.8696 611.53905 C 149.32742 609.5375 147.28136 608.5362 144.73144 608.5362" fill="#65c1bd"/>
      <path d="M 166.04046 626.69334 C 165.23978 627.6003 164.31944 628.0545 163.28148 628.0545 C 162.3846 628.0545 161.52456 627.6778 160.6984 626.9242 C 159.87188 626.1717 159.41712 625.2175 159.2339 624.06335 L 159.2339 619.75394 C 159.60034 618.7057 159.97027 617.8138 160.72112 617.07815 C 161.47197 616.3425 162.31993 615.9746 163.26738 615.9746 C 164.46676 615.9746 165.42923 616.4962 166.15498 617.5393 C 166.88036 618.5824 167.24314 620.0665 167.24314 621.9918 C 167.24314 624.2193 166.84188 625.7869 166.04046 626.69334 M 163.84325 613.90344 C 161.70943 613.90344 160.15001 615.03246 159.05067 617.2894 L 159.05067 614.2248 L 156.852 614.2248 L 156.852 634.7458 L 159.2339 634.7458 L 159.2339 627.2831 C 160.33324 629.1071 161.8375 630.0196 163.75218 630.0196 C 165.5366 630.0196 166.9967 629.288 168.1358 627.8255 C 169.27435 626.36226 169.84363 624.3851 169.84363 621.8936 C 169.84363 619.583 169.30129 617.6738 168.19462 616.1657 C 167.0874 614.6574 165.6447 613.90344 163.84325 613.90344" fill="#65c1bd"/>
      <path d="M 174.95336 620.45444 C 175.05358 618.98865 175.51494 617.8596 176.33651 617.01296 C 177.15754 616.1661 178.15793 615.7302 179.33734 615.7302 C 180.21407 615.7302 180.96455 615.95814 181.5899 616.4272 C 182.21468 616.8955 182.65845 617.4846 182.92028 618.14986 C 183.18283 618.81496 183.32318 619.5383 183.34352 620.45444 Z M 184.07715 616.03106 C 182.86238 614.6501 181.25752 613.9317 179.26167 613.9317 C 177.23614 613.9317 175.5525 614.6664 174.2124 616.1648 C 172.87194 617.6625 172.20153 619.6204 172.20153 622.052 C 172.20153 624.43295 172.8461 626.35295 174.13655 627.8209 C 175.42662 629.28965 177.11503 630.0216 179.20157 630.0216 C 180.7839 630.0216 182.15917 629.5936 183.32831 628.7385 C 184.49783 627.8838 185.28386 626.8042 185.68713 625.4991 L 183.4802 625.046 C 182.68355 627.0512 181.31286 628.05436 179.36758 628.05436 C 178.28912 628.05436 177.26619 627.7077 176.29877 626.9015 C 175.33117 626.095 174.84709 624.48535 174.84709 622.2867 L 185.9442 622.2867 C 185.91396 619.3551 185.29155 617.41165 184.07715 616.03106" fill="#65c1bd"/>
      <path d="M 199.45251 614.95616 C 198.65128 614.3667 197.6538 614.07174 196.51471 614.07174 C 194.5392 614.07174 192.94699 615.1504 191.66442 617.3071 L 191.66442 614.3933 L 189.64897 614.3933 L 189.64897 629.78405 L 191.84765 629.78405 L 191.84765 621.38895 C 191.84765 619.8072 192.2775 618.53176 193.09888 617.5638 C 193.91972 616.5964 194.94522 616.1127 196.1545 616.1127 C 197.03158 616.1127 197.8002 616.39996 198.41492 616.97455 C 199.02982 617.5488 199.3598 618.54166 199.3598 619.953 L 199.3598 629.78405 L 201.55848 629.78405 L 201.55848 620.9355 C 201.55848 619.0105 201.40384 617.6803 201.1061 616.9443 C 200.80873 616.2083 200.25393 615.5456 199.45251 614.95616 Z" fill="#65c1bd"/>
      <path d="M 211.60948 623.9988 C 211.60948 625.1291 211.5208 625.9461 211.3482 626.451 C 211.17505 626.95544 210.83573 627.3662 210.3315 627.6843 C 209.82763 628.002 208.98975 628.1603 207.92614 628.1603 C 207.1784 628.1603 206.47922 628.0623 205.37988 627.8661 L 205.37988 629.8262 C 206.47922 630.0871 207.29512 630.2181 208.21948 630.2181 C 209.9458 630.2181 211.35498 629.7602 212.40045 628.8454 C 213.44556 627.93 213.99138 626.31416 213.99138 623.9973 L 213.99138 610.648 L 211.60948 610.648 Z" fill="#363450"/>
      <path d="M 227.48836 619.91866 C 226.5968 620.83936 225.49288 621.2998 224.17715 621.2998 C 222.98198 621.2998 221.93468 620.9026 221.03395 620.1083 C 220.1334 619.3135 219.68305 618.2339 219.68305 616.8687 C 219.68305 615.5981 220.08925 614.5198 220.9013 613.63685 C 221.7126 612.75335 222.81873 612.3118 224.21892 612.3118 C 225.60024 612.3118 226.7135 612.7414 227.55799 613.6017 C 228.40283 614.4617 228.82516 615.4903 228.82516 616.6864 C 228.82516 617.9204 228.3792 618.99796 227.48836 619.91866 M 229.6231 612.8523 C 228.34475 611.167 226.50592 610.32326 224.1068 610.32326 C 222.14703 610.32326 220.53449 610.9682 219.27006 612.25754 C 218.0049 613.54725 217.37297 615.09824 217.37297 616.91105 C 217.37297 618.6958 217.9745 620.1931 219.17863 621.4031 C 220.38296 622.61296 221.87147 623.21815 223.64452 623.21815 C 226.1554 623.21815 228.03638 622.0699 229.28725 619.7737 C 229.25903 622.3966 228.78522 624.4736 227.86635 626.00424 C 226.94675 627.53525 225.57716 628.3 223.75665 628.3 C 221.88118 628.3 220.5462 627.41836 219.75267 625.6541 L 217.8347 626.3544 C 218.84242 628.9303 220.80712 630.2182 223.72917 630.2182 C 226.22998 630.2182 228.15786 629.25865 229.51115 627.3394 C 230.86443 625.41994 231.54144 622.9096 231.54144 619.80836 C 231.54144 616.857 230.902 614.5383 229.6231 612.8523" fill="#363450"/>
      <path d="M 200.209 631.1683 C 201.14698 632.8192 202.31983 634.37285 203.72756 635.7806 C 212.1646 644.2177 225.84376 644.2177 234.28082 635.7806 C 242.7179 627.3435 242.7179 613.6644 234.28082 605.2273 C 225.84376 596.7902 212.1646 596.7902 203.72756 605.2273 C 201.23106 607.7238 199.47327 610.67924 198.45417 613.82204 L 199.57464 614.3209 C 200.53005 611.31 202.2017 608.47715 204.58955 606.0893 C 212.55054 598.1283 225.45784 598.1283 233.41882 606.0893 C 241.37985 614.0503 241.37985 626.9576 233.41882 634.9186 C 225.45784 642.8796 212.55054 642.8796 204.58955 634.9186 C 203.29064 633.6197 202.20366 632.1891 201.32861 630.6698 Z" fill="#65c2be"/>
    </g>
  </g>
</svg>
