<?xml version="1.0" encoding="UTF-8" standalone="no"?>
<!DOCTYPE svg PUBLIC "-//W3C//DTD SVG 1.1//EN" "http://www.w3.org/Graphics/SVG/1.1/DTD/svg11.dtd">
<svg xmlns="http://www.w3.org/2000/svg" xmlns:xl="http://www.w3.org/1999/xlink" version="1.1" viewBox="94.4751 331.35694 713.65355 379.82646" width="713.65355pt" height="379.82646pt" xmlns:dc="http://purl.org/dc/elements/1.1/">
  <metadata> Produced by OmniGraffle 7.4.3 
    <dc:date>2017-09-29 19:33:38 +0000</dc:date>
  </metadata>
  <defs/>
  <g stroke="none" stroke-opacity="1" stroke-dasharray="none" fill="none" fill-opacity="1">
    <title>OpenJ9 - black</title>
    <g>
      <title>Layer 1</title>
      <path d="M 235.8691 548.2744 C 230.3111 557.2494 222.6121 561.7344 212.7651 561.7344 C 203.1951 561.7344 195.5491 557.3994 189.8261 548.7284 C 184.1061 540.0554 181.2451 528.8124 181.2451 514.9924 C 181.2451 500.8424 184.0781 489.3894 189.7441 480.6354 C 195.4111 471.8824 203.0551 467.5034 212.6821 467.5034 C 222.2001 467.5034 229.8311 471.5534 235.5801 479.6434 C 241.3291 487.7384 244.2041 499.0544 244.2041 513.5874 C 244.2041 527.7384 241.4251 539.3004 235.8691 548.2744 M 212.8481 455.9524 C 198.8751 455.9524 187.6531 461.5144 179.1811 472.6324 C 170.7111 483.7514 166.4751 497.8444 166.4751 514.9094 C 166.4751 531.2594 170.5191 545.0634 178.6061 556.3184 C 186.6921 567.5764 197.9681 573.2054 212.4351 573.2054 C 227.1231 573.2054 238.5511 567.2724 246.7221 555.4114 C 254.8891 543.5484 258.9741 529.6324 258.9741 513.6714 C 258.9741 497.0474 254.7651 483.2704 246.3491 472.3414 C 237.9321 461.4174 226.7651 455.9524 212.8481 455.9524" fill="black"/>
      <path d="M 329.1489 555.0508 C 324.7789 560.0008 319.7559 562.4798 314.0909 562.4798 C 309.1959 562.4798 304.5019 560.4238 299.9929 556.3108 C 295.4819 552.2038 292.9999 546.9958 291.9999 540.6968 L 291.9999 517.1768 C 293.9999 511.4558 296.0189 506.5878 300.1169 502.5728 C 304.2149 498.5578 308.8429 496.5498 314.0139 496.5498 C 320.5599 496.5498 325.8129 499.3968 329.7739 505.0898 C 333.7329 510.7828 335.7129 518.8828 335.7129 529.3908 C 335.7129 541.5478 333.5229 550.1038 329.1489 555.0508 M 317.1569 485.2458 C 305.5109 485.2458 296.9999 491.4078 290.9999 503.7258 L 290.9999 486.9998 L 278.9999 486.9998 L 278.9999 598.9998 L 291.9999 598.9998 L 291.9999 558.2698 C 297.9999 568.2248 306.2099 573.2048 316.6599 573.2048 C 326.3989 573.2048 334.3679 569.2118 340.5849 561.2298 C 346.7989 553.2438 349.9059 542.4528 349.9059 528.8548 C 349.9059 516.2438 346.9459 505.8238 340.9059 497.5928 C 334.8629 489.3608 326.9889 485.2458 317.1569 485.2458" fill="black"/>
      <path d="M 377.7939 521 C 378.3409 513 380.8589 506.838 385.3429 502.217 C 389.8239 497.595 395.2839 495.216 401.7209 495.216 C 406.5059 495.216 410.6019 496.46 414.0149 499.02 C 417.4249 501.576 419.8469 504.791 421.2759 508.422 C 422.7089 512.052 423.4749 516 423.5859 521 Z M 427.5899 496.858 C 420.9599 489.321 412.2009 485.4 401.3079 485.4 C 390.2529 485.4 381.0639 489.41 373.7499 497.588 C 366.4339 505.762 362.7749 516.448 362.7749 529.719 C 362.7749 542.714 366.2929 553.193 373.3359 561.205 C 380.3769 569.221 389.5919 573.216 400.9799 573.216 C 409.6159 573.216 417.1219 570.88 423.5029 566.213 C 429.8859 561.548 434.1759 555.656 436.3769 548.533 L 424.3319 546.06 C 419.9839 557.004 412.5029 562.479 401.8859 562.479 C 395.9999 562.479 390.4169 560.587 385.1369 556.187 C 379.8559 551.785 377.2139 543 377.2139 531 L 437.7799 531 C 437.6149 515 434.2179 504.393 427.5899 496.858" fill="black"/>
      <path d="M 511.5059 490.99137 C 507.1329 487.77437 501.6889 486.16437 495.4719 486.16437 C 484.6899 486.16437 475.9999 492.05137 468.9999 503.82237 L 468.9999 487.91937 L 457.9999 487.91937 L 457.9999 571.9194 L 469.9999 571.9194 L 469.9999 526.10037 C 469.9999 517.46737 472.3459 510.50637 476.8289 505.22337 C 481.3089 499.94337 486.9059 497.30337 493.5059 497.30337 C 498.2929 497.30337 502.4879 498.87137 505.8429 502.00737 C 509.1989 505.14137 510.9999 510.56037 510.9999 518.26337 L 510.9999 571.9194 L 522.9999 571.9194 L 522.9999 523.62537 C 522.9999 513.11937 522.1559 505.85937 520.5309 501.84237 C 518.9079 497.82537 515.8799 494.20837 511.5059 490.99137 Z" fill="black"/>
      <path d="M 577.8564 540.3443 C 577.8564 546.5133 577.3724 550.9723 576.4304 553.7283 C 575.4854 556.4813 573.6334 558.7233 570.8814 560.4593 C 568.1314 562.1933 563.5584 563.0573 557.7534 563.0573 C 553.6724 563.0573 549.8564 562.5223 543.8564 561.4513 L 543.8564 572.1493 C 549.8564 573.5733 554.3094 574.2883 559.3544 574.2883 C 568.7764 574.2883 576.4674 571.7893 582.1734 566.7963 C 587.8774 561.8003 590.8564 552.9813 590.8564 540.3363 L 590.8564 467.4783 L 577.8564 467.4783 Z" fill="black"/>
      <path d="M 664.5205 518.0758 C 659.6545 523.1008 653.6295 525.6138 646.4485 525.6138 C 639.9255 525.6138 634.2095 523.4458 629.2935 519.1108 C 624.3785 514.7728 621.9205 508.8808 621.9205 501.4298 C 621.9205 494.4948 624.1375 488.6098 628.5695 483.7908 C 632.9975 478.9688 639.0345 476.5588 646.6765 476.5588 C 654.2155 476.5588 660.2915 478.9038 664.9005 483.5988 C 669.5115 488.2928 671.8165 493.9068 671.8165 500.4348 C 671.8165 507.1698 669.3825 513.0508 664.5205 518.0758 M 676.1715 479.5088 C 669.1945 470.3108 659.1585 465.7058 646.0645 465.7058 C 635.3685 465.7058 626.5675 469.2258 619.6665 476.2628 C 612.7615 483.3018 609.3125 491.7668 609.3125 501.6608 C 609.3125 511.4018 612.5955 519.5738 619.1675 526.1778 C 625.7405 532.7808 633.8645 536.0838 643.5415 536.0838 C 657.2455 536.0838 667.5115 529.8168 674.3385 517.2848 C 674.1845 531.5998 671.5985 542.9358 666.5835 551.2898 C 661.5645 559.6458 654.0895 563.8198 644.1535 563.8198 C 633.9175 563.8198 626.6315 559.0078 622.3005 549.3788 L 611.8325 553.2008 C 617.3325 567.2598 628.0555 574.2888 644.0035 574.2888 C 657.6525 574.2888 668.1745 569.0518 675.5605 558.5768 C 682.9465 548.1008 686.6415 534.3998 686.6415 517.4738 C 686.6415 501.3658 683.1515 488.7108 676.1715 479.5088" fill="black"/>
      <path d="M 515.6347 579.4744 C 520.754 588.48464 527.1552 596.9642 534.8383 604.6473 C 580.8862 650.69544 655.5446 650.69544 701.5925 604.6473 C 747.6407 558.59936 747.6407 483.941 701.5925 437.89306 C 655.5446 391.8449 580.8862 391.8449 534.8383 437.89306 C 521.2129 451.5184 511.61916 467.6487 506.05713 484.80156 L 512.17243 487.52426 C 517.3869 471.0913 526.5104 455.6301 539.5429 442.59767 C 582.99255 399.1478 653.4383 399.1478 696.8879 442.59767 C 740.3378 486.0473 740.3378 556.49304 696.8879 599.9427 C 653.4383 643.3925 582.99255 643.3925 539.5429 599.9427 C 532.4537 592.8535 526.5212 585.0457 521.7453 576.75376 Z" fill="black"/>
    </g>
  </g>
</svg>
